<svg width="600" height="600" viewBox="0 0 600 600" fill="none" xmlns="http://www.w3.org/2000/svg">
  <defs>
    <linearGradient id="bgGradient" x1="0" y1="0" x2="600" y2="600" gradientUnits="userSpaceOnUse">
      <stop stop-color="#6366F1"/>
      <stop offset="1" stop-color="#EC4899"/>
    </linearGradient>
  </defs>
  <rect width="600" height="600" rx="40" fill="url(#bgGradient)"/>
  <circle cx="300" cy="210" r="120" fill="#F8FAFC" opacity="0.95"/>
  <rect x="180" y="360" width="240" height="180" rx="90" fill="#F8FAFC" opacity="0.95"/>
  <circle cx="300" cy="210" r="70" fill="#E2E8F0"/>
  <path d="M210 400C210 380 230 360 260 360H340C370 360 390 380 390 400V430C390 450 370 470 340 470H260C230 470 210 450 210 430V400Z" fill="#CBD5E1"/>
  <circle cx="265" cy="205" r="18" fill="#94A3B8"/>
  <circle cx="335" cy="205" r="18" fill="#94A3B8"/>
  <path d="M235 250C255 280 285 300 300 300C315 300 345 280 365 250" stroke="#94A3B8" stroke-width="18" stroke-linecap="round"/>
</svg>